<svg width="80" height="90" viewBox="0 0 80 90" fill="none" xmlns="http://www.w3.org/2000/svg">
<path d="M80 10V25H70V10H15V65H70V50H80V65C80 67.6522 78.9464 70.1957 77.0711 72.0711C75.1957 73.9464 72.6522 75 70 75H50V90H40V75H30V90H20V75H15C12.3478 75 9.8043 73.9464 7.92893 72.0711C6.05357 70.1957 5 67.6522 5 65V60H0V45H5V30H0V15H5V10C5 7.34784 6.05357 4.8043 7.92893 2.92893C9.8043 1.05357 12.3478 0 15 0H70C72.6522 0 75.1957 1.05357 77.0711 2.92893C78.9464 4.8043 80 7.34784 80 10ZM70 45H80V30H70V45ZM55 35H45V20L30 40H40V55L55 35Z" fill="white"/>
</svg>
