<svg width="64" height="64" viewBox="0 0 64 64" fill="none" xmlns="http://www.w3.org/2000/svg">
<path d="M53.8975 49.3672C53.625 48.5507 52.8613 48 52 48H48V30C48 21.1777 40.8222 14 32 14C23.1777 14 16 21.1777 16 30V48H12C11.1386 48 10.375 48.5507 10.1025 49.3672L6.10246 61.3672C5.89934 61.9766 6.00184 62.6485 6.37784 63.17C6.75384 63.6914 7.35734 64 7.99996 64H56C56.6426 64 57.2461 63.6914 57.6221 63.1699C57.9981 62.6484 58.1006 61.9765 57.8975 61.3671L53.8975 49.3672ZM20 30C20 23.3828 25.3828 18 32 18C38.6171 18 44 23.3829 44 30V48H20V30ZM10.7743 60L13.4413 52H18H46H50.5586L53.2256 60H10.7743Z" fill="white"/>
<path d="M32 10C33.1045 10 34 9.1045 34 8V2C34 0.8955 33.1045 0 32 0C30.8955 0 30 0.8955 30 2V8C30 9.1045 30.8955 10 32 10Z" fill="white"/>
<path d="M60 28H54C52.8955 28 52 28.8955 52 30C52 31.1045 52.8955 32 54 32H60C61.1045 32 62 31.1045 62 30C62 28.8955 61.1045 28 60 28Z" fill="white"/>
<path d="M12 30C12 28.8955 11.1045 28 10 28H4C2.8955 28 2 28.8955 2 30C2 31.1045 2.8955 32 4 32H10C11.1045 32 12 31.1045 12 30Z" fill="white"/>
<path d="M47.5566 16.4434C48.0683 16.4434 48.5801 16.248 48.9707 15.8574L53.213 11.6151C53.9942 10.8339 53.9942 9.56824 53.213 8.78699C52.4317 8.00574 51.1661 8.00574 50.3848 8.78699L46.1426 13.0292C45.3613 13.8105 45.3613 15.0761 46.1426 15.8574C46.5332 16.248 47.0448 16.4434 47.5566 16.4434Z" fill="white"/>
<path d="M15.0292 15.8574C15.4199 16.248 15.9316 16.4434 16.4434 16.4434C16.9551 16.4434 17.4669 16.248 17.8575 15.8574C18.6387 15.0761 18.6387 13.8105 17.8575 13.0292L13.6152 8.78699C12.834 8.00574 11.5684 8.00574 10.7871 8.78699C10.0059 9.56824 10.0059 10.8339 10.7871 11.6151L15.0292 15.8574Z" fill="white"/>
<path d="M24 30V46H32V22C27.5816 22 24 25.5816 24 30Z" fill="white"/>
</svg>
